<svg xmlns="http://www.w3.org/2000/svg" viewBox="0 0 128 128" role="img" aria-label="Pavel Kleisner">
  <rect width="128" height="128" rx="18" fill="#090a0c"/>
  <path d="M13 116 53 12h12L25 116H13Z" fill="#e22932"/>
  <path d="M38 28h30c18 0 30 10 30 26 0 17-12 28-31 28H55v34H38V28Zm17 15v24h12c9 0 14-4 14-12s-5-12-14-12H55Z" fill="#eef1f3"/>
  <path d="M78 28h17v34l26-34h19l-30 38 32 50h-20L99 80l-4 5v31H78V28Z" fill="#eef1f3"/>
  <path d="M10 10h108v10H10V10Z" fill="#61d7e8" opacity=".75"/>
</svg>
